<?xml version="1.0" encoding="UTF-8"?>
<svg id="Layer_2" data-name="Layer 2" xmlns="http://www.w3.org/2000/svg" xmlns:xlink="http://www.w3.org/1999/xlink" viewBox="0 0 120 121">
  <defs>
    <style>
      .cls-1 {
        fill: url(#linear-gradient);
      }

      .cls-1, .cls-2 {
        stroke-width: 0px;
      }

      .cls-2 {
        fill: #fff;
        fill-rule: evenodd;
      }
    </style>
    <linearGradient id="linear-gradient" x1="-280.34" y1="350.28" x2="-280.34" y2="349.29" gradientTransform="translate(33701 42385.67) scale(120 -121)" gradientUnits="userSpaceOnUse">
      <stop offset="0" stop-color="#335593"/>
      <stop offset="1" stop-color="#4a90e2"/>
    </linearGradient>
  </defs>
  <g id="Layer_1-2" data-name="Layer 1">
    <ellipse id="Oval-Copy-7" class="cls-1" cx="60" cy="60.5" rx="60" ry="60.5"/>
    <g id="Group-2-Copy-2">
      <path id="Combined-Shape" class="cls-2" d="m68.54,55.38l-.13.2c-6.32-.84-11.34-6.36-11.34-13.21,0-1,.65-1.67,1.62-1.67,3.89,0,7.29,1.84,9.72,4.52v-9.53c0-1,.65-1.67,1.62-1.67s1.62.67,1.62,1.67v4.52c2.43-2.68,5.83-4.52,9.72-4.52.97,0,1.62.67,1.62,1.67,0,6.67-4.99,12.34-11.28,13.21v18.91c0,.88-.71,1.59-1.59,1.59s-1.59-.71-1.59-1.59v-14.08Zm14.44,12.57c1.44,1.26,1.33,3.41-.12,4.53l-14.44,11.22c-1.09.84-2.43,1.3-3.82,1.3H30.53c-.84,0-1.53-.67-1.53-1.48v-8.9c0-.82.69-1.48,1.53-1.48h5.29l4.44-3.5c2.01-1.58,4.5-2.44,7.08-2.44h15.28c1.86,0,3.33,1.61,3.02,3.47-.25,1.46-1.66,2.47-3.18,2.47h-7.48c-.84,0-1.53.67-1.53,1.48s.69,1.48,1.53,1.48h11.3c1.39,0,2.74-.45,3.82-1.3l8.82-6.85c1.18-.93,2.94-.99,4.07,0Z"/>
    </g>
  </g>
</svg>