<?xml version="1.0" encoding="UTF-8"?>
<svg id="Layer_2" data-name="Layer 2" xmlns="http://www.w3.org/2000/svg" xmlns:xlink="http://www.w3.org/1999/xlink" viewBox="0 0 120 121">
  <defs>
    <style>
      .cls-1 {
        fill: url(#linear-gradient);
      }

      .cls-1, .cls-2 {
        stroke-width: 0px;
      }

      .cls-2 {
        fill: #fff;
        fill-rule: evenodd;
      }
    </style>
    <linearGradient id="linear-gradient" x1="173.66" y1="353.28" x2="173.66" y2="352.29" gradientTransform="translate(-20779 42748.67) scale(120 -121)" gradientUnits="userSpaceOnUse">
      <stop offset="0" stop-color="#335593"/>
      <stop offset="1" stop-color="#4a90e2"/>
    </linearGradient>
  </defs>
  <g id="Layer_1-2" data-name="Layer 1">
    <ellipse id="Oval-Copy-8" class="cls-1" cx="60" cy="60.5" rx="60" ry="60.5"/>
    <g id="hand-2">
      <g id="hand">
        <path id="Combined-Shape-Copy" class="cls-2" d="m80.79,80.61h0s6.4,5.96,6.4,5.96l-5.34,5.72-6.19-5.77c-.43-.32-.87-.58-1.1-.67-.34-.13-1.33-.17-3.19-.16-3.41.02-3.95,0-4.63-.23-.22-.08-.87-.34-1.45-.61-1.13-.51-1.69-.72-2.24-.81-.5-.09-.93-.23-1.48-.47-.4-.18-.63-.23-1.63-.35-1.13-.14-1.14-.14-1.21-.3-.2-.58.19-1.14,1.01-1.46.94-.36,1.97-.39,3.19-.07,2.83.74,4.19.58,4.08-.49-.1-.82-1.09-2.52-2.07-3.56-.33-.34-.6-.54-2.36-1.74-1.1-.75-2.31-1.6-2.72-1.89-.93-.67-3.53-2.69-3.82-2.96-.66-.62-.77-1.18-.32-1.66s.99-.37,2.44.57c.31.19,1.16.74,1.9,1.2.75.47,1.76,1.11,2.26,1.42,2.16,1.36,3.23,1.84,3.52,1.53.18-.19.05-.6-.41-1.32-.38-.6-.83-1.2-2.3-3.01-1.63-2.03-2.76-3.45-2.99-3.81-.21-.33-.44-.84-.46-1.05,0-.07.02-.24.06-.37.2-.62.82-.9,1.34-.59.29.17.41.3,1.42,1.55,1.29,1.61,3.73,4.6,4.21,5.16,1.05,1.22,1.67,1.64,1.77,1.18.07-.27-.18-1.03-.67-2.04-.44-.88-2.03-3.85-2.52-4.67-.7-1.19-.82-1.46-.81-1.86.01-.67.73-1.07,1.26-.71.18.12.79.85.83.99,0,.03.5.81,1.1,1.74s1.48,2.31,1.95,3.05c1.04,1.65,1.58,2.42,1.96,2.77.44.41.62.33.61-.28,0-.47-.29-1.62-1.02-4.09-.31-1.05-.59-2.03-.63-2.2-.11-.5-.13-1.01-.02-1.22.2-.4.77-.47,1.11-.15.38.35.75,1.18,1.41,3.27.53,1.63,1.55,4.39,1.99,5.37.38.82.6,1.18,1.75,2.67,1.56,2.02,1.91,2.58,2.62,4.05.55,1.15.89,1.77,1.36,2.35Z"/>
        <path id="Combined-Shape-Copy-2" class="cls-2" d="m34.71,83.07h0s-7.17,5.03-7.17,5.03l-4.49-6.41,6.93-4.85c.4-.36.75-.73.89-.94.2-.31.44-1.27.82-3.09.69-3.34.83-3.86,1.19-4.48.12-.2.52-.78.89-1.29.74-.99,1.06-1.51,1.25-2.02.19-.47.42-.86.77-1.35.25-.35.36-.57.68-1.52.37-1.07.37-1.09.54-1.12.61-.08,1.08.42,1.22,1.3.15,1-.03,2.01-.6,3.13-1.31,2.62-1.44,3.98-.37,4.09.82.08,2.69-.54,3.91-1.29.4-.25.66-.47,2.2-1.94.96-.92,2.05-1.93,2.41-2.27.85-.77,3.36-2.89,3.69-3.12.74-.52,1.31-.51,1.69.03s.16,1.05-1.07,2.27c-.25.26-.97.98-1.57,1.61-.62.64-1.45,1.49-1.86,1.91-1.78,1.83-2.47,2.78-2.23,3.13.15.21.58.17,1.38-.12.67-.25,1.35-.57,3.42-1.63,2.32-1.18,3.95-1.98,4.35-2.13.36-.14.91-.26,1.12-.23.07.01.23.07.35.14.57.33.71.99.3,1.43-.23.25-.38.34-1.81,1.06-1.84.93-5.27,2.69-5.93,3.05-1.41.77-1.95,1.29-1.53,1.49.25.13,1.04.04,2.14-.23.95-.24,4.19-1.19,5.1-1.49,1.3-.43,1.6-.5,1.99-.41.65.15.89.94.43,1.38-.16.15-1,.6-1.14.61-.03,0-.9.32-1.93.72s-2.57.97-3.39,1.27c-1.83.67-2.69,1.04-3.12,1.34-.5.35-.45.53.15.65.46.1,1.65.05,4.21-.15,1.09-.08,2.11-.15,2.28-.16.51,0,1.02.08,1.2.24.34.28.3.85-.09,1.12-.43.3-1.31.48-3.49.7-1.71.18-4.61.6-5.66.83-.88.2-1.28.34-2.97,1.15-2.3,1.1-2.92,1.33-4.51,1.72-1.24.29-1.91.5-2.58.84Z"/>
        <path id="Combined-Shape-Copy-3" class="cls-2" d="m35.7,40.73h0s-6.9-5.38-6.9-5.38l4.82-6.17,6.67,5.21c.46.28.91.51,1.15.57.35.1,1.34.05,3.19-.12,3.4-.32,3.93-.34,4.63-.17.23.06.9.26,1.5.48,1.17.41,1.75.57,2.3.61.5.05.94.15,1.52.34.41.14.65.17,1.65.2,1.13.04,1.15.04,1.23.19.25.56-.09,1.15-.88,1.54-.91.44-1.93.56-3.17.34-2.89-.49-4.23-.21-4.02.84.17.81,1.3,2.42,2.37,3.36.36.31.65.49,2.5,1.53,1.16.65,2.44,1.39,2.88,1.64.98.59,3.75,2.37,4.06,2.62.71.56.87,1.1.46,1.63s-.96.46-2.48-.36c-.32-.16-1.22-.64-2-1.03-.79-.4-1.85-.95-2.38-1.22-2.27-1.17-3.38-1.55-3.64-1.21-.16.21,0,.61.52,1.28.43.56.93,1.12,2.56,2.8,1.8,1.88,3.05,3.2,3.31,3.54.24.31.51.79.55,1,0,.07,0,.24-.03.37-.15.64-.74.96-1.28.7-.3-.14-.44-.27-1.55-1.42-1.43-1.49-4.12-4.26-4.65-4.78-1.15-1.12-1.8-1.48-1.87-1.02-.05.28.27,1.01.85,1.98.51.84,2.36,3.66,2.92,4.44.8,1.12.94,1.39.97,1.78.05.67-.64,1.13-1.19.82-.19-.11-.86-.78-.91-.91-.01-.02-.57-.76-1.25-1.64-.68-.88-1.68-2.17-2.21-2.87-1.18-1.55-1.79-2.27-2.2-2.59-.48-.37-.64-.28-.58.33.04.47.43,1.59,1.37,3.98.4,1.02.76,1.97.82,2.13.16.49.22,1,.13,1.21-.17.41-.72.54-1.1.24-.41-.32-.85-1.11-1.69-3.13-.67-1.58-1.92-4.23-2.45-5.17-.45-.79-.7-1.12-1.97-2.51-1.73-1.88-2.13-2.4-2.96-3.81-.64-1.1-1.04-1.68-1.56-2.22Z"/>
        <path id="Combined-Shape-Copy-4" class="cls-2" d="m79,35.45h-.01s5.27-7,5.27-7l6.25,4.71-5.09,6.76c-.27.46-.49.92-.55,1.16-.09.36-.03,1.34.17,3.19.38,3.39.41,3.93.25,4.63-.06.23-.25.9-.45,1.51-.39,1.17-.54,1.76-.57,2.31-.04.5-.13.95-.31,1.52-.13.41-.16.65-.18,1.65-.02,1.13-.02,1.15-.17,1.23-.56.26-1.15-.07-1.56-.86-.45-.9-.59-1.92-.4-3.16.44-2.89.13-4.23-.91-4-.81.18-2.4,1.34-3.32,2.43-.3.36-.48.65-1.49,2.53-.63,1.17-1.35,2.46-1.59,2.9-.57.99-2.3,3.79-2.55,4.11-.55.72-1.09.89-1.62.49s-.48-.95.31-2.49c.15-.32.62-1.23,1-2.02.39-.8.92-1.87,1.18-2.4,1.13-2.29,1.49-3.4,1.15-3.66-.21-.16-.61.01-1.27.54-.56.44-1.11.95-2.75,2.6-1.84,1.84-3.15,3.11-3.48,3.37-.3.24-.79.53-.99.57-.07.01-.24,0-.37-.02-.64-.14-.98-.72-.72-1.27.14-.3.26-.44,1.39-1.57,1.47-1.45,4.18-4.19,4.7-4.73,1.1-1.17,1.45-1.83.99-1.89-.28-.04-1.01.29-1.96.88-.83.53-3.61,2.42-4.39,2.99-1.11.82-1.37.97-1.77,1-.67.06-1.14-.62-.84-1.18.1-.2.77-.88.89-.93.02-.01.75-.58,1.62-1.28.87-.69,2.14-1.72,2.83-2.26,1.53-1.21,2.24-1.83,2.55-2.24.36-.48.27-.65-.34-.57-.46.04-1.58.46-3.96,1.44-1.01.42-1.96.8-2.12.86-.48.17-1,.23-1.21.15-.41-.16-.55-.72-.26-1.09.31-.42,1.1-.87,3.1-1.75,1.57-.7,4.2-2,5.13-2.54.78-.46,1.11-.72,2.47-2.01,1.85-1.76,2.36-2.17,3.76-3.03,1.09-.66,1.66-1.07,2.19-1.6Z"/>
      </g>
    </g>
  </g>
</svg>