<?xml version="1.0" encoding="UTF-8"?>
<svg id="Layer_2" data-name="Layer 2" xmlns="http://www.w3.org/2000/svg" xmlns:xlink="http://www.w3.org/1999/xlink" viewBox="0 0 120 121">
  <defs>
    <style>
      .cls-1 {
        fill: url(#linear-gradient);
      }

      .cls-1, .cls-2, .cls-3, .cls-4 {
        stroke-width: 0px;
      }

      .cls-2 {
        fill: none;
      }

      .cls-3, .cls-4 {
        fill: #fff;
      }

      .cls-4 {
        fill-rule: evenodd;
      }
    </style>
    <linearGradient id="linear-gradient" x1="-280.34" y1="576.28" x2="-280.34" y2="575.29" gradientTransform="translate(33701 69731.67) scale(120 -121)" gradientUnits="userSpaceOnUse">
      <stop offset="0" stop-color="#335593"/>
      <stop offset="1" stop-color="#4a90e2"/>
    </linearGradient>
  </defs>
  <g id="Layer_1-2" data-name="Layer 1">
    <g>
      <ellipse id="Oval-Copy-6" class="cls-1" cx="60" cy="60.5" rx="60" ry="60.5"/>
      <g id="computer-setting-svgrepo-com">
        <g id="invisible_box" data-name="invisible box">
          <rect id="Rectangle" class="cls-2" x="23" y="23" width="72.93" height="74.59"/>
        </g>
        <g id="icons_Q2" data-name="icons Q2">
          <g id="Group">
            <path id="Path" class="cls-4" d="m33.83,74.71h18.27c1.68,0,3.05-1.38,3.05-3.07s-1.36-3.07-3.05-3.07h-15.23v-30.72h45.68v30.72h-15.23c-1.68,0-3.05,1.38-3.05,3.07s1.36,3.07,3.05,3.07h18.27c1.68,0,3.05-1.38,3.05-3.07v-36.87c0-1.7-1.36-3.07-3.05-3.07h-51.77c-1.68,0-3.05,1.38-3.05,3.07v36.87c0,1.7,1.36,3.07,3.05,3.07Z"/>
            <path id="Path-2" data-name="Path" class="cls-4" d="m90.17,80.85H29.27c-1.68,0-3.05,1.38-3.05,3.07s1.36,3.07,3.05,3.07h60.9c1.68,0,3.05-1.38,3.05-3.07s-1.36-3.07-3.05-3.07Z"/>
            <path id="Shape" class="cls-3" d="m71.74,55.2c.13-.66.18-1.33.15-2,.03-.67-.03-1.34-.15-2l-3.35-.77c-.14-.54-.34-1.05-.61-1.54l1.83-2.92c-.76-1.07-1.68-2-2.74-2.77l-2.89,1.84-1.52-.61-.76-3.38h-3.96l-.76,3.38-1.52.61-2.89-1.84c-1.06.76-1.99,1.7-2.74,2.77l1.83,2.92c-.27.48-.47,1-.61,1.54l-3.35.77c-.13.66-.18,1.33-.15,2-.03.67.03,1.34.15,2l3.35.77c.14.54.34,1.05.61,1.54l-1.83,2.92c.76,1.07,1.68,2,2.74,2.77l2.89-1.84,1.52.61.76,3.38h3.96l.76-3.38,1.52-.61,2.89,1.84c1.06-.76,1.99-1.7,2.74-2.77l-1.83-2.92c.27-.48.47-1,.61-1.54l3.35-.77Zm-12.03,1.08c-1.68,0-3.05-1.38-3.05-3.07s1.36-3.07,3.05-3.07,3.05,1.38,3.05,3.07-1.36,3.07-3.05,3.07Z"/>
          </g>
        </g>
      </g>
    </g>
  </g>
</svg>