<?xml version="1.0" encoding="UTF-8"?>
<svg width="1620px" height="589px" viewBox="0 0 1620 589" version="1.1" xmlns="http://www.w3.org/2000/svg" xmlns:xlink="http://www.w3.org/1999/xlink">
    <!-- Generator: Sketch 52.3 (67297) - http://www.bohemiancoding.com/sketch -->
    <title>Timelines</title>
    <desc>Created with Sketch.</desc>
    <defs>
        <linearGradient x1="20.3382652%" y1="92.1129546%" x2="75.5249057%" y2="72.665176%" id="linearGradient-1">
            <stop stop-color="#EB6BEC" offset="0%"></stop>
            <stop stop-color="#5D84E1" offset="28.8534705%"></stop>
            <stop stop-color="#4C87E0" offset="54.0235222%"></stop>
            <stop stop-color="#512DD4" offset="100%"></stop>
        </linearGradient>
    </defs>
    <g id="Timelines" stroke="none" stroke-width="1" fill="none" fill-rule="evenodd">
        <g id="Group-3" transform="translate(13.000000, 58.000000)">
            <text id="Nov-2023-Copy-2" fill="#C40AFF" font-family="ArialMT, Arial" font-size="28" font-weight="normal" letter-spacing="-0.0924">
                <tspan x="334" y="476">Nov 2023</tspan>
            </text>
            <text id="Top-Team-Selection" font-family="Arial-BoldMT, Arial" font-size="28" font-weight="bold" fill="#3777C2">
                <tspan x="331.882812" y="405">Top Team  </tspan>
                <tspan x="335.758789" y="436.916016">Selection </tspan>
            </text>
            <text id="Dec-2023" fill="#C40AFF" font-family="ArialMT, Arial" font-size="28" font-weight="normal" letter-spacing="-0.0924">
                <tspan x="736" y="205">Dec 2023</tspan>
            </text>
            <text id="BUILD-Bootcamp-&amp;-Reg" font-family="Arial-BoldMT, Arial" font-size="28" font-weight="bold" letter-spacing="-0.0084" fill="#3777C2">
                <tspan x="689.956848" y="127">BUILD Bootcamp &amp;</tspan>
                <tspan x="638.654122" y="158.916016">Regional Pitch competition  </tspan>
            </text>
            <text id="Boeing-Immersion-&amp;-B-Copy" font-family="Arial-BoldMT, Arial" font-size="28" font-weight="bold" letter-spacing="-0.0084" fill="#3777C2">
                <tspan x="919.944741" y="405">Boeing Immersion &amp; </tspan>
                <tspan x="968.933212" y="436.916016">BUILD Finals  </tspan>
            </text>
            <text id="Jan-2024-Copy" fill="#C40AFF" font-family="ArialMT, Arial" font-size="28" font-weight="normal">
                <tspan x="988" y="481">J</tspan>
                <tspan x="1002" y="481" letter-spacing="-0.109511996">an</tspan>
                <tspan x="1032.92551" y="481" letter-spacing="0.0926640034"> </tspan>
                <tspan x="1040.79747" y="481" letter-spacing="-0.109511996">202</tspan>
                <tspan x="1087.18573" y="481">4</tspan>
            </text>
            <text id="Extended-Support-Copy" font-family="Arial-BoldMT, Arial" font-size="28" font-weight="bold" letter-spacing="-0.0084" fill="#3777C2">
                <tspan x="1280" y="151">Extended Support </tspan>
            </text>
            <text id="Feb---July-2024-Copy" fill="#C40AFF" font-family="ArialMT, Arial" font-size="28" font-weight="normal">
                <tspan x="1310" y="198">Feb - July</tspan>
                <tspan x="1432.92383" y="198" letter-spacing="0.0475199997"> </tspan>
                <tspan x="1440.75064" y="198" letter-spacing="-0.0561599985">202</tspan>
                <tspan x="1487.29896" y="198">4</tspan>
            </text>
            <g id="Memo_Pad" transform="translate(186.500000, 44.000000)" fill="#BD10E0" fill-rule="nonzero">
                <path d="M9.44584383,0 C4.23507839,0.0143210535 0.0145292056,4.17440473 0,9.31051837 L0,64.6894816 C0.0145292056,69.8255953 4.23507839,73.9856789 9.44584383,74 L50.5541562,74 C53.0593497,74 55.4619371,73.0190732 57.2333764,71.2730123 C59.0048157,69.5269514 60,67.1587846 60,64.6894816 L60,9.31051837 C60,6.84121537 59.0048157,4.47304859 57.2333764,2.72698769 C55.4619371,0.980926798 53.0593497,1.6538803e-15 50.5541562,1.6538803e-15 L9.44584383,0 Z M56.2216625,64.6894816 C56.2216625,67.774716 53.6842335,70.2757927 50.5541562,70.2757927 L9.44584383,70.2757927 C6.31576653,70.2757927 3.77833753,67.774716 3.77833753,64.6894816 L3.77833753,16.5354806 L56.2216625,16.5354806 L56.2216625,64.6894816 Z" id="Shape"></path>
                <g id="Group" transform="translate(12.000000, 23.000000)">
                    <path d="M1.91744878,3.74949331 C0.858471062,3.74949331 8.8817842e-16,2.91014064 8.8817842e-16,1.87474666 C8.8817842e-16,0.839352668 0.858471062,0 1.91744878,0 L36.0825512,0 C37.1415289,0 38,0.839352668 38,1.87474666 C38,2.91014064 37.1415289,3.74949331 36.0825512,3.74949331 L1.91744878,3.74949331 Z" id="Path"></path>
                    <path d="M1.91744878,14.9979732 C0.858471062,14.9979732 8.8817842e-16,14.1586206 8.8817842e-16,13.1232266 C8.8817842e-16,12.0878326 0.858471062,11.2484799 1.91744878,11.2484799 L26.844283,11.2484799 C27.9032607,11.2484799 28.7617318,12.0878326 28.7617318,13.1232266 C28.7617318,14.1586206 27.9032607,14.9979732 26.844283,14.9979732 L1.91744878,14.9979732 Z" id="Path"></path>
                    <path d="M1.98264204,37 C0.923664321,37 0.0651932587,36.1606473 0.0651932587,35.1252533 C0.0651932587,34.0898594 0.923664321,33.2505067 1.98264204,33.2505067 L14.449894,33.2505067 C15.5088718,33.2505067 16.3673428,34.0898594 16.3673428,35.1252533 C16.3673428,36.1606473 15.5088718,37 14.449894,37 L1.98264204,37 Z" id="Path"></path>
                </g>
            </g>
            <rect id="Rectangle" fill="url(#linearGradient-1)" x="17" y="228" width="1563" height="22"></rect>
            <g id="Group-2" transform="translate(353.000000, 275.000000)" fill="#4A90E2">
                <path d="M26.6550234,70.7157258 C25.4525857,73.3548367 22.8611251,73.5443548 20.7316849,73.5443548 C18.0869142,73.5443548 15.7294255,71.0551613 14.749113,67.3326855 L11.7874437,53.1895403 C11.5120085,51.8685706 10.2977241,50.9153226 8.88500781,50.9153226 C5.92333854,50.9153226 5.92333854,50.9153226 5.91445353,45.4928407 C6.84441769,34.845881 9.47141833,30.8942863 13.6977204,27.6668206 C13.8902289,27.5169032 14.067929,27.3443569 14.2160125,27.1520101 C14.2811692,27.0699798 14.3581726,26.9794637 14.4292527,26.8946048 C16.3484144,27.762994 18.4689696,28.2862903 20.7316849,28.2862903 C22.8433551,28.2862903 24.8395202,27.8421956 26.6550234,27.0812944 L26.6550234,20.4481593 C25.0853387,21.800244 23.0121702,22.6290323 20.7316849,22.6290323 C15.8330839,22.6290323 11.8466771,18.8216976 11.8466771,14.1431452 C11.8466771,9.46459274 15.8330839,5.65725806 20.7316849,5.65725806 C24.599625,5.65725806 27.8930012,8.02764919 29.1132089,11.3258306 L35.1490909,11.3145161 C33.6504863,5.01515927 27.7804578,0 20.7316849,0 C12.554516,0 5.92333854,6.3333004 5.92333854,14.1431452 C5.92333854,17.7411613 7.37455648,20.9884274 9.69058185,23.4861069 C3.6724699,28.2155746 0.947734167,34.2999556 0,45.2580645 C0,50.0158185 0,55.3449556 6.41793731,56.3887198 L8.97385789,68.571625 C10.664971,75.0293851 15.2792518,79.2016129 20.7316849,79.2016129 C22.8848185,79.2016129 24.8957919,78.5312278 26.6550234,77.3290605 L26.6550234,70.7157258" id="Fill-4"></path>
                <path d="M63.1753898,77.3375464 C64.9320724,78.5312278 66.9435185,79.2016129 69.0971581,79.2016129 C74.5508727,79.2016129 79.1662379,75.0293851 80.8873721,68.4415081 L83.4142698,56.3887198 C89.8337155,55.342127 89.8337155,49.9931895 89.8248284,45.0232883 C88.8887209,34.297127 86.1603824,28.2155746 80.1408561,23.4861069 C82.4574258,20.9884274 83.9089848,17.7411613 83.9089848,14.1431452 C83.9089848,6.3333004 77.2762488,0 69.0971581,0 C62.0467286,0 56.1753205,5.0179879 54.6763636,11.3145161 L60.7166266,11.3145161 C61.9400834,8.02199194 65.2342337,5.65725806 69.0971581,5.65725806 C73.9969104,5.65725806 77.9842541,9.46459274 77.9842541,14.1431452 C77.9842541,18.8216976 73.9969104,22.6290323 69.0971581,22.6290323 C66.8161368,22.6290323 64.7424811,21.800244 63.1724274,20.4481593 L63.1842769,27.0869516 C65.0002068,27.8450242 66.9909163,28.2862903 69.0971581,28.2862903 C71.3604052,28.2862903 73.4814588,27.762994 75.4010715,26.8946048 C75.4721683,26.9822923 75.5491898,27.0699798 75.6143618,27.1548387 C75.7624801,27.3471855 75.940222,27.5169032 76.1327758,27.6668206 C80.3600711,30.8942863 82.9876892,34.845881 83.9089848,45.2580645 C83.9089848,50.9153226 83.9089848,50.9153226 80.9466195,50.9153226 C79.5335712,50.9153226 78.316039,51.8685706 78.0405391,53.1895403 L75.1107597,67.2025685 C74.1005932,71.0551613 71.739588,73.5443548 69.0971581,73.5443548 C67.3700991,73.5443548 64.3484865,72.4892762 63.1724274,70.7157258 L63.1753898,77.3375464" id="Fill-5"></path>
                <path d="M58.4952874,61.3024194 C57.0312989,61.3024194 55.772944,62.2556673 55.4875123,63.5766371 L52.4521146,77.5868367 C51.4055316,81.4422581 48.9594124,83.9314516 46.218654,83.9314516 C43.4778956,83.9314516 41.0348455,81.4422581 40.0189541,77.7197823 L36.9497957,63.5766371 C36.664364,62.2556673 35.4060091,61.3024194 33.9420205,61.3024194 C30.8728622,61.3024194 30.8728622,61.3024194 30.8636547,55.8799375 C31.8243013,45.2358065 34.5497139,41.2842117 38.9294029,38.0539173 C39.1288982,37.904 39.3130477,37.7314536 39.4665056,37.5419355 C39.5370962,37.4570766 39.6168944,37.3693891 39.687485,37.2817016 C40.3013167,37.5504214 40.9458399,37.7597399 41.605709,37.9492581 L44.1745945,41.5020161 L40.0803373,50.9298367 L46.218654,58.4737903 L52.3569707,50.9298367 L48.2657826,41.5020161 L50.8346682,37.9492581 C51.4914681,37.7569113 52.1359913,37.5504214 52.7528921,37.2817016 C52.826552,37.3665605 52.9063501,37.4570766 52.9738716,37.5419355 C53.1303986,37.7314536 53.311479,37.904 53.5109743,38.0539173 C57.8906632,41.2842117 60.6130067,45.2358065 61.567515,55.6451613 C61.567515,61.3024194 61.567515,61.3024194 58.4952874,61.3024194 Z M46.218654,16.0443548 C51.2950419,16.0443548 55.4261291,19.8516895 55.4261291,24.5302419 C55.4261291,29.2087944 51.2950419,33.016129 46.218654,33.016129 C41.1422661,33.016129 37.0111789,29.2087944 37.0111789,24.5302419 C37.0111789,19.8516895 41.1422661,16.0443548 46.218654,16.0443548 Z M67.6935551,55.4103851 C66.723701,44.6842238 63.9000753,38.6026714 57.6604764,33.8732036 C60.0605582,31.3755242 61.5644458,28.1282581 61.5644458,24.5302419 C61.5644458,16.7203972 54.6956694,10.3870968 46.218654,10.3870968 C37.7447078,10.3870968 30.8728622,16.7203972 30.8728622,24.5302419 C30.8728622,28.1282581 32.3767498,31.3755242 34.7768316,33.8732036 C28.5403018,38.6026714 25.7166761,44.689881 24.7345455,55.6451613 C24.7345455,60.4029153 24.7345455,65.7320524 31.3854116,66.7758165 L34.0340953,78.9587218 C35.7865847,85.4136532 40.5683334,89.5887097 46.218654,89.5887097 C51.8689745,89.5887097 56.6537924,85.4164819 58.4369734,78.8286048 L61.0518964,66.7758165 C67.7058317,65.7292238 67.7058317,60.3802863 67.6935551,55.4103851 Z" id="Fill-6"></path>
            </g>
            <path d="M817,63.1834946 C812.875583,65.0305065 808.357541,66.6461013 803.409106,68 L798,62.5887308 C799.351736,57.6424587 800.967331,53.1222538 802.816505,49 L817,63.1834946 Z M807.637123,41.7136064 C804.915056,39.7821225 800.119998,41.3073006 795.619054,43.5960885 C792.81788,45.0436806 791.99842,42.3200025 794.473027,39.8597086 C802.038833,32.3706147 812.632989,23.9157789 821,25.1142789 C816.206971,29.4427628 811.612721,34.8758269 807.637123,41.7136064 Z M852.12341,30.9095315 C852.12341,30.9095315 852.12341,30.9095315 852.108867,30.9240746 C851.585332,31.0362642 847.262014,31.6865483 841.289145,25.713491 C835.316275,19.7404337 835.964462,15.4149014 836.07457,14.8913499 C836.09119,14.8747293 836.09119,14.8747293 836.09119,14.8747293 C848.575006,8.56925833 859,8 859,8 C859,8 858.43076,18.4253223 852.12341,30.9095315 Z M824.853232,59.786353 C822.305107,61.2919686 819.563848,62.7020555 816.619072,64 L803,50.3809282 C804.281331,47.4506887 805.691418,44.7115067 807.18042,42.1779191 C811.250773,35.2230134 815.954524,29.6968849 820.861793,25.2942573 L820.878406,25.2776436 C825.899894,20.7649502 831.093749,17.4380589 835.971943,15 C835.861878,15.5233312 835.213944,19.8470439 841.184488,25.8175885 C847.155033,31.7881331 851.476669,31.1381225 852,31.0259801 C849.607629,35.8252596 846.345115,40.9256622 841.942488,45.8661581 C837.508709,50.8398813 831.901589,55.6536978 824.853232,59.786353 Z M827.350602,73.501673 C824.761965,76.0113627 821.911242,75.194685 823.419311,72.3414559 C825.958538,67.5874454 827.612688,62.4569814 825.088499,59.7888933 C832.379648,55.6952192 838.179914,50.9268088 842.76642,46 C844.585985,54.5823158 835.42801,65.6414073 827.350602,73.501673 Z M837.509084,41.6571089 C834.192114,44.7809637 828.810544,44.7809637 825.489322,41.6571089 C822.170226,38.5312529 822.170226,33.4682468 825.489322,30.344392 C828.810544,27.218536 834.192114,27.218536 837.509084,30.344392 C840.830305,33.4682468 840.830305,38.5312529 837.509084,41.6571089 Z M798,69 L784,83 L798,69 Z M793,67 C788.334729,69 783.667365,71 779,73 L793,67 Z M800,73 C798.667358,77.3340464 797.332642,81.6659536 796,86 L800,73 Z" id="Stroke-154-Copy" stroke="#9013FE" stroke-width="5" stroke-linecap="round" stroke-linejoin="round"></path>
            <g id="Trophy-Copy" transform="translate(1015.000000, 279.000000)" fill="#4A90E2" fill-rule="nonzero">
                <path d="M74.200891,9.0201455 L69.8041369,9.0201455 C69.8494643,8.47621712 69.8947916,7.93228875 69.8947916,7.38836038 C69.9535917,5.40511101 69.2195201,3.48021215 67.8550604,2.03973139 C66.6108782,0.742501275 64.8931175,0.00631807556 63.0956874,0 L17.9496352,0 C16.1388026,0.00546457065 14.406658,0.740809022 13.1449349,2.03973139 C11.7769304,3.47501232 11.0562257,5.4078114 11.150531,7.38836038 C11.150531,7.93228875 11.1958583,8.47621712 11.2411857,9.0201455 L6.79910424,9.0201455 C3.04406266,9.0201455 0,12.0642083 0,15.8192501 L0,24.884723 C0.00993259631,35.7374459 8.51624122,44.6820192 19.3547834,45.2367096 C24.2048111,55.6620034 30.8226059,62.4157806 38.2562932,63.5489647 L38.2562932,76.4672636 L20.1253486,76.4672636 C18.873668,76.4672636 17.8589805,77.4819512 17.8589805,78.7336318 C17.8589805,79.9853124 18.873668,81 20.1253486,81 L60.919974,81 C62.1716546,81 63.1863421,79.9853124 63.1863421,78.7336318 C63.1863421,77.4819512 62.1716546,76.4672636 60.919974,76.4672636 L42.7890294,76.4672636 L42.7890294,63.5489647 C50.2227167,62.4157806 56.8405115,55.6620034 61.6905392,45.2367096 C72.5184416,44.6744373 81.0073447,35.7272126 80.9999952,24.884723 L80.9999952,15.8192501 C80.9999952,12.0642083 77.9559326,9.0201455 74.200891,9.0201455 Z M4.53273616,24.884723 L4.53273616,15.8192501 C4.53273616,14.5675695 5.54742372,13.5528819 6.79910424,13.5528819 L11.5131499,13.5528819 C12.2465231,22.7302455 14.1976069,31.7692512 17.3150521,40.432009 C9.89141665,38.961689 4.53988832,32.4525602 4.53273616,24.884723 Z M40.5226613,59.1975378 C27.7403453,59.1975378 16.8164512,36.3525462 15.6832671,7.20705092 C15.6299955,6.46930936 15.8937985,5.74385096 16.4085049,5.21264689 C16.8100873,4.78827854 17.3654724,4.54325568 17.9496352,4.53273643 L63.0956874,4.53273643 C63.668565,4.5350908 64.2130299,4.78257486 64.5914903,5.21264689 C65.1010826,5.74995812 65.378002,6.46669059 65.3620555,7.20705092 C64.2288714,36.3525462 53.3049773,59.1975378 40.5226613,59.1975378 Z M76.4672591,24.884723 C76.433358,32.4026193 71.138879,38.8694477 63.7755978,40.3866816 C66.8507644,31.7297828 68.7858828,22.7093877 69.5321727,13.5528819 L74.200891,13.5528819 C75.4525715,13.5528819 76.4672591,14.5675695 76.4672591,15.8192501 L76.4672591,24.884723 Z" id="Shape"></path>
            </g>
            <g id="Flag_1-Copy" transform="translate(1394.500000, 27.000000)" fill="#BD10E0" fill-rule="nonzero" stroke="#9013FE" stroke-width="2">
                <path d="M70.5092334,0.483221477 C69.5141798,-0.125381816 68.2695571,-0.156096052 67.2456631,0.402684564 L62.6927812,2.65771812 C56.1253497,6.16107383 47.3016228,6 36.5036374,2.13422819 C26.8355312,-1.29191682 16.1757856,-0.533017152 7.09121433,4.22818792 L4.02909905,5.87919463 L4.02909905,2.01342282 C4.02909905,0.901440101 3.1271545,0 2.01454952,0 C0.901944544,0 0,0.901440101 0,2.01342282 L0,69.9865772 C0,71.0985599 0.901944544,72 2.01454952,72 C3.1271545,72 4.02909905,71.0985599 4.02909905,69.9865772 L4.02909905,51.704698 C4.31048168,51.6324951 4.58133609,51.524214 4.83491886,51.3825503 L8.98489088,49.1677852 C17.0788535,44.9437517 26.565525,44.2727628 35.1740347,47.3154362 C47.0598769,51.5838926 56.9714605,51.6644295 64.5864578,47.5973154 L70.3883604,44.6979866 C71.3697606,44.1715234 71.9871487,43.1534027 72,42.0402685 L72,3.06040268 C71.989824,1.99945776 71.424091,1.02143982 70.5092334,0.483221477 Z M67.970901,41.3959732 L62.6927812,44.0536913 C56.1253497,47.557047 47.3016228,47.3959732 36.5036374,43.5302013 C26.8355312,40.1040563 16.1757856,40.862956 7.09121433,45.6241611 L4.02909905,47.2348993 L4.02909905,10.4295302 L9.00503637,7.77181208 C17.0933996,3.5280565 26.588435,2.85647596 35.1941802,5.91946309 C47.0800224,10.1879195 56.991606,10.2684564 64.5663123,6.24161074 L67.9910464,4.51006711 L67.970901,41.3959732 Z" id="Shape"></path>
            </g>
            <path d="M265.5,252 L265.5,435.261658" id="Path-11" stroke="#9013FE" stroke-width="3"></path>
            <path d="M566.5,31 L566.5,235.261658" id="Path-11-Copy" stroke="#9013FE" stroke-width="3"></path>
            <path d="M881.5,250 L881.5,432" id="Path-11-Copy-5" stroke="#4A90E2" stroke-width="3"></path>
            <path d="M1216.5,23 L1216.5,227.261658" id="Path-11-Copy-6" stroke="#4A90E2" stroke-width="3"></path>
            <path d="M19.5,34 L19.5,227.261658" id="Path-11-Copy-3" stroke="#9013FE" stroke-width="3"></path>
            <text id="Sept---Oct-2023" font-family="ArialMT, Arial" font-size="28.08" font-weight="normal" letter-spacing="-0.000702000048" fill="#BD10E0">
                <tspan x="108" y="205">S</tspan>
                <tspan x="126.728439" y="205" letter-spacing="-0.113022007">ep</tspan>
                <tspan x="157.73591" y="205" letter-spacing="0.111617999">t - Oct 2023</tspan>
                <tspan x="305.782357" y="205"> </tspan>
            </text>
            <text id="Submit-Applications" font-family="Arial-BoldMT, Arial" font-size="28.08" font-weight="bold" letter-spacing="-0.00842399998" fill="#4A90E2">
                <tspan x="81.3764733" y="157">Submit Applications</tspan>
            </text>
            <circle id="Oval" fill="#9013FE" cx="19" cy="28" r="19"></circle>
            <text id="1" font-family="Arial-BoldMT, Arial" font-size="28.08" font-weight="bold" letter-spacing="-0.000702" fill="#FFFFFF">
                <tspan x="11" y="38">1</tspan>
            </text>
            <circle id="Oval-Copy" fill="#9013FE" cx="266" cy="451" r="19"></circle>
            <text id="2" font-family="Arial-BoldMT, Arial" font-size="28.08" font-weight="bold" letter-spacing="-0.000702" fill="#FFFFFF">
                <tspan x="258" y="461">2</tspan>
            </text>
            <circle id="Oval-Copy-2" fill="#9013FE" cx="565" cy="39" r="19"></circle>
            <text id="3" font-family="Arial-BoldMT, Arial" font-size="28.08" font-weight="bold" letter-spacing="-0.000702" fill="#FFFFFF">
                <tspan x="557" y="49">3</tspan>
            </text>
            <circle id="Oval-Copy-3" fill="#4A90E2" cx="882" cy="450" r="19"></circle>
            <text id="4" font-family="Arial-BoldMT, Arial" font-size="28.08" font-weight="bold" letter-spacing="-0.000702" fill="#FFFFFF">
                <tspan x="874" y="460">4</tspan>
            </text>
            <circle id="Oval-Copy-4" fill="#4A90E2" cx="1218" cy="19" r="19"></circle>
            <text id="5" font-family="Arial-BoldMT, Arial" font-size="28.08" font-weight="bold" letter-spacing="-0.000702" fill="#FFFFFF">
                <tspan x="1210" y="29">5</tspan>
            </text>
        </g>
    </g>
</svg>